<svg xmlns="http://www.w3.org/2000/svg" width="1672" height="1672" viewBox="0 0 1254 1254"><g fill="#2563EB"><path d="M614 203.3c-91 54.6-177.1 80.8-302 91.8-29.5 2.6-29.8 2.6-31 4.8-2.6 5-6.6 94.9-5.5 127.6 1.8 58.3 4.8 90.4 13.5 142 8.4 49.8 21.2 96.3 38.7 140.5 8 20.2 23.8 54.3 31.9 68.7l3.5 6.4 8.8-9.3c4.8-5.1 10.6-11.3 12.8-13.8l4.2-4.6-10.3-20.4c-40.2-80.5-62.1-177.5-66.7-295-1.4-36.7.2-104 2.7-107.7 1.8-2.8.9-2.6 28.4-5.3 107.4-10.5 189.6-34.7 268.9-79.2 6.9-3.9 13.7-7.1 15.1-7.1s7.7 2.9 14 6.5c54.3 30.9 112.3 52.5 176.5 65.8 30.1 6.2 83.4 14 107.3 15.6 11.4.8 13.9 1.6 15.1 4.6 1.8 4.9 3.3 73.3 2.2 103.1-4.4 117.5-25.8 214.1-65.7 296.6-5.2 10.7-9.4 19.6-9.4 19.8s4.7 5.4 10.5 11.4c5.8 6.1 11.3 12.1 12.1 13.5.9 1.3 2.1 2.1 2.6 1.8 1.5-1 20.8-40.5 27.8-57 19.4-46 33.2-93.8 42.9-147.9 11.7-66 15.9-120.6 14.7-192-.8-53.6-2.7-82.6-5.5-85.4-1.3-1.3-5.3-1.9-18.3-2.9-64.8-4.9-130.2-16.5-179.3-31.7-46.4-14.4-86.6-32.6-133.6-60.6-6.4-3.8-12.7-6.9-14-6.9s-7.1 2.8-12.9 6.3"/><path d="M423.5 344.6c-12.2 1.8-23.5 5.3-23.5 7.2 0 .4 11.3 12 25.1 25.7l25.1 25-.4 12.2-.3 12.3-12 12c-13.1 13.2-12 12.6-27 13.4l-9 .4-25-24.9c-13.8-13.7-25.6-24.9-26.2-24.9-1.7 0-2.7 2.3-4.9 11-2.4 9.7-2.5 29.5-.1 39.2 7.7 31.4 30.8 52.8 62.9 58.4 8 1.4 11 1.4 22.1.4 17.6-1.7 19-1.3 30.3 10.1 4.9 4.9 9.4 8.9 10 8.9.7 0 3.3-3.6 6-8.1 6.6-11.4 16.7-24 26.5-33.4 7.5-7.2 11.1-10.1 23.8-19.3l3.3-2.5-8.6-8.6c-10.8-10.8-12.1-14.1-10.5-26.4 2.9-21.9-2.8-43.5-15.5-59.3-14.6-18.1-34.9-28.1-58.6-28.9-5.8-.2-11.8-.1-13.5.1"/><path d="M838.5 365.6c-4.4 3.1-15.7 10.7-25.2 16.9-19.4 12.9-17.1 9.5-19.4 28.8l-1.2 9.8-30.1 30.5-30.1 30.5-5.4-4.1c-18.7-14.2-45.2-25.6-69.6-30.1-71.2-12.9-142.4 20.7-177.5 83.8-9.8 17.7-16.2 36-20.2 58.3-2 11.3-1.7 42 .6 54.5 2.2 12.1 8.8 32.7 14.5 44.9 2.2 4.9 4.1 9.3 4.1 9.8 0 .4-5.7 4.6-12.7 9.2-12.5 8.1-13.7 9.2-47.9 44.7-19.2 20-37.6 39.3-40.8 42.7-26.5 29.1-12 74.2 25.9 80.2 11.4 1.8 26-1.2 34.7-7.1 3.3-2.3 12.6-11.6 65.7-66.4 12.3-12.7 22.1-23.9 26.8-30.6l7.5-10.6 12.5 6.3c13.6 6.9 28.2 12.1 44.3 15.5 9.1 2 13.4 2.3 32 2.3 18.5 0 22.9-.3 31.8-2.2 20.8-4.5 38.8-11.6 56.1-22l9.7-5.9 32.2 33.6c58.5 61 58.9 61.4 66.7 65.2 6.7 3.2 7.5 3.4 18.5 3.4s11.8-.2 18.7-3.4c14.3-6.7 23.1-19.3 24-34.5 1.2-17.7-1.7-23.6-21.6-44.1-47.3-48.6-77.1-78.5-78.5-78.5-.8 0-3.2 2.6-5.2 5.7-10.9 17.2-27.9 34.9-44.2 46.2-6.1 4.3-4.2 1.6 3.7-5.2 4.3-3.6 11.2-10.6 15.3-15.5 41.1-49 52.8-113.9 31.1-172.2-5.8-15.6-17-35.7-25.9-46.7-1.9-2.3-3.4-4.4-3.4-4.8 0-.3 13.3-14.4 29.5-31.4l29.5-30.8 13.3-2.2 13.4-2.3 16.1-26 16.1-26.1-13.1-12.6c-7.2-6.9-13.3-12.7-13.7-12.8-.3-.2-4.2 2.3-8.6 5.3M652.5 468c29.7 5.1 55 17.9 76.7 38.8 12.4 12 19.4 20.8 27.1 34.3 14.3 25 20.5 49.9 19.4 78.8-1.5 40.2-16 73.6-44.1 101.6-21.3 21.3-43.5 33.5-73.6 40.6-11 2.6-39.2 3.7-51.2 1.9-45.4-6.6-85.6-33.5-108.2-72.6-34.8-60-24.8-134.6 24.5-183.4 22.3-22.1 53.4-37.2 85.4-41.3 9.7-1.3 33.1-.6 44 1.3M471.2 744.7c3.9 3.5 2.5 5.7-15.4 24.6-54.7 57.4-58 60.7-60.9 60.7-3.2 0-5.9-2.9-5.9-6.3 0-3.1.3-3.5 25.6-29.7 6-6.3 18.3-19.2 27.3-28.5 9-9.4 17.7-18.2 19.2-19.8 3.3-3.1 7.3-3.5 10.1-1m332.1 18c7.2 7.6 21.4 22.2 31.4 32.4 16.2 16.6 18.3 19 18.3 22 0 4.5-2.5 6.9-7 6.9-3.5 0-4.8-1.1-24.1-21.3-44.9-46.5-41.9-43.2-41.9-47.1 0-4.1 2.8-6.6 7.3-6.6 2.3 0 5.1 2.4 16 13.7m-311.8 3.8c4.1 4 3.3 6-7.3 16.9-5.4 5.6-22.1 22.8-37.1 38.3s-28.2 28.5-29.2 28.8c-2.4.8-6.4-1.7-7.1-4.2-.3-1-.1-2.8.3-4s12.4-14.2 26.5-29c39.1-40.6 47.8-49.3 49.7-49.3 1 0 2.9 1.1 4.2 2.5"/><path d="M596.4 514c-1.2.4-3.1 2.1-4.3 3.6-2 2.6-2.1 3.6-2.1 30.8 0 15.4-.4 28.7-.9 29.5-.8 1.2-6.4 1.5-29.7 1.9l-28.8.5-2.8 2.8-2.8 2.7v29.9c0 26 .2 30.2 1.6 32.2 3.3 4.6 6.4 5.1 34.7 5.1 19.1 0 26.6.3 27.5 1.2s1.2 8.8 1.2 29.6v28.4l2.9 2.9 2.9 2.9h62.4l2.9-2.9 2.9-2.9v-28c0-15.4.3-28.7.6-29.6.5-1.4 4-1.6 28.1-1.6 22.3 0 27.9-.3 30.3-1.5 6-3.1 6-3.1 6-35.8v-29.9l-2.9-2.9-2.9-2.9-15.4-.2c-8.4-.1-20.5 0-26.8.1s-12.7-.2-14.3-.8L664 578v-28.8c0-25-.2-29.1-1.6-31.1-3.3-4.7-6.3-5.1-36.1-5-15.3 0-28.8.4-29.9.9M786 860.2c-25.2 23.5-61.8 52-92 71.4-25.9 16.7-62 36.4-66.6 36.4-4.8 0-38-18.1-65.4-35.7-26.1-16.7-55.1-38.4-78.7-58.7-6.7-5.8-12.4-10.6-12.7-10.6-.2 0-3.7 3.4-7.7 7.6-4.1 4.2-10.2 9.4-13.6 11.7-3.5 2.3-6.3 4.4-6.3 4.8 0 .9 24.2 21.8 40.4 34.7 37.3 30 80.1 57.5 120.1 77.3 14.3 7 21.1 9.9 23.7 9.9 2.7 0 10-3.2 27-11.8 46-23.3 86.1-49.9 128.8-85.5 11.9-9.9 41-36.7 41-37.8 0-.4-2.2-1.5-4.9-2.4-6-1.9-12.9-6.3-20.2-12.6-3.1-2.7-5.8-4.9-6-4.9-.2.1-3.3 2.8-6.9 6.2"/></g></svg>